<mxfile host="app.diagrams.net" modified="2024-02-21T16:11:05.932Z" agent="Mozilla/5.0 (Windows NT 10.0; Win64; x64; rv:109.0) Gecko/20100101 Firefox/115.0" etag="7Pj5srY9VuMoY8dpWvJJ" version="23.1.5" type="github">
  <diagram name="Page-1" id="fJ7hg3LSL8O3sAAXK8hL">
    <mxGraphModel dx="1434" dy="754" grid="1" gridSize="10" guides="1" tooltips="1" connect="1" arrows="1" fold="1" page="1" pageScale="1" pageWidth="850" pageHeight="1100" math="0" shadow="0">
      <root>
        <mxCell id="0" />
        <mxCell id="1" parent="0" />
        <mxCell id="yZECyWibJnEaQU9a-CN--3" value="" style="edgeStyle=orthogonalEdgeStyle;rounded=0;orthogonalLoop=1;jettySize=auto;html=1;" edge="1" parent="1" source="yZECyWibJnEaQU9a-CN--1" target="yZECyWibJnEaQU9a-CN--2">
          <mxGeometry relative="1" as="geometry" />
        </mxCell>
        <mxCell id="yZECyWibJnEaQU9a-CN--1" value="Start" style="ellipse;whiteSpace=wrap;html=1;fillColor=#d5e8d4;strokeColor=#82b366;" vertex="1" parent="1">
          <mxGeometry x="30" y="160" width="120" height="80" as="geometry" />
        </mxCell>
        <mxCell id="yZECyWibJnEaQU9a-CN--81" value="" style="edgeStyle=orthogonalEdgeStyle;rounded=0;orthogonalLoop=1;jettySize=auto;html=1;" edge="1" parent="1" source="yZECyWibJnEaQU9a-CN--2" target="yZECyWibJnEaQU9a-CN--80">
          <mxGeometry relative="1" as="geometry" />
        </mxCell>
        <mxCell id="yZECyWibJnEaQU9a-CN--2" value="Choose a Number between 1 to 25" style="rounded=1;whiteSpace=wrap;html=1;" vertex="1" parent="1">
          <mxGeometry x="30" y="320" width="120" height="60" as="geometry" />
        </mxCell>
        <mxCell id="yZECyWibJnEaQU9a-CN--24" value="7" style="rounded=1;whiteSpace=wrap;html=1;" vertex="1" parent="1">
          <mxGeometry x="570" y="160" width="120" height="60" as="geometry" />
        </mxCell>
        <mxCell id="yZECyWibJnEaQU9a-CN--98" value="" style="edgeStyle=orthogonalEdgeStyle;rounded=0;orthogonalLoop=1;jettySize=auto;html=1;" edge="1" parent="1" source="yZECyWibJnEaQU9a-CN--27" target="yZECyWibJnEaQU9a-CN--97">
          <mxGeometry relative="1" as="geometry" />
        </mxCell>
        <mxCell id="yZECyWibJnEaQU9a-CN--27" value="End" style="ellipse;whiteSpace=wrap;html=1;fillColor=#f8cecc;strokeColor=#b85450;" vertex="1" parent="1">
          <mxGeometry x="30" y="640" width="120" height="80" as="geometry" />
        </mxCell>
        <mxCell id="yZECyWibJnEaQU9a-CN--85" value="" style="edgeStyle=orthogonalEdgeStyle;rounded=0;orthogonalLoop=1;jettySize=auto;html=1;" edge="1" parent="1" source="yZECyWibJnEaQU9a-CN--80" target="yZECyWibJnEaQU9a-CN--84">
          <mxGeometry relative="1" as="geometry" />
        </mxCell>
        <mxCell id="yZECyWibJnEaQU9a-CN--80" value="" style="ellipse;whiteSpace=wrap;html=1;rounded=1;" vertex="1" parent="1">
          <mxGeometry x="80" y="440" width="20" height="20" as="geometry" />
        </mxCell>
        <mxCell id="yZECyWibJnEaQU9a-CN--87" value="" style="edgeStyle=orthogonalEdgeStyle;rounded=0;orthogonalLoop=1;jettySize=auto;html=1;" edge="1" parent="1" source="yZECyWibJnEaQU9a-CN--84" target="yZECyWibJnEaQU9a-CN--86">
          <mxGeometry relative="1" as="geometry" />
        </mxCell>
        <mxCell id="yZECyWibJnEaQU9a-CN--88" value="No" style="edgeLabel;html=1;align=center;verticalAlign=middle;resizable=0;points=[];" vertex="1" connectable="0" parent="yZECyWibJnEaQU9a-CN--87">
          <mxGeometry x="-0.0667" y="-1" relative="1" as="geometry">
            <mxPoint as="offset" />
          </mxGeometry>
        </mxCell>
        <mxCell id="yZECyWibJnEaQU9a-CN--90" value="" style="edgeStyle=orthogonalEdgeStyle;rounded=0;orthogonalLoop=1;jettySize=auto;html=1;entryX=0.5;entryY=0;entryDx=0;entryDy=0;" edge="1" parent="1" source="yZECyWibJnEaQU9a-CN--84" target="yZECyWibJnEaQU9a-CN--27">
          <mxGeometry relative="1" as="geometry">
            <mxPoint x="100" y="590" as="targetPoint" />
          </mxGeometry>
        </mxCell>
        <mxCell id="yZECyWibJnEaQU9a-CN--91" value="Yes" style="edgeLabel;html=1;align=center;verticalAlign=middle;resizable=0;points=[];" vertex="1" connectable="0" parent="yZECyWibJnEaQU9a-CN--90">
          <mxGeometry x="-0.2889" y="-3" relative="1" as="geometry">
            <mxPoint as="offset" />
          </mxGeometry>
        </mxCell>
        <mxCell id="yZECyWibJnEaQU9a-CN--84" value="Is it Higher than12?" style="rhombus;whiteSpace=wrap;html=1;rounded=1;" vertex="1" parent="1">
          <mxGeometry x="50" y="520" width="80" height="80" as="geometry" />
        </mxCell>
        <mxCell id="yZECyWibJnEaQU9a-CN--94" value="" style="edgeStyle=orthogonalEdgeStyle;rounded=0;orthogonalLoop=1;jettySize=auto;html=1;" edge="1" parent="1" source="yZECyWibJnEaQU9a-CN--86" target="yZECyWibJnEaQU9a-CN--93">
          <mxGeometry relative="1" as="geometry" />
        </mxCell>
        <mxCell id="yZECyWibJnEaQU9a-CN--86" value="Choose Another" style="whiteSpace=wrap;html=1;rounded=1;" vertex="1" parent="1">
          <mxGeometry x="210" y="530" width="120" height="60" as="geometry" />
        </mxCell>
        <mxCell id="yZECyWibJnEaQU9a-CN--101" value="" style="edgeStyle=orthogonalEdgeStyle;rounded=0;orthogonalLoop=1;jettySize=auto;html=1;" edge="1" parent="1" source="yZECyWibJnEaQU9a-CN--93" target="yZECyWibJnEaQU9a-CN--100">
          <mxGeometry relative="1" as="geometry" />
        </mxCell>
        <mxCell id="yZECyWibJnEaQU9a-CN--103" value="" style="edgeStyle=orthogonalEdgeStyle;rounded=0;orthogonalLoop=1;jettySize=auto;html=1;" edge="1" parent="1" source="yZECyWibJnEaQU9a-CN--93" target="yZECyWibJnEaQU9a-CN--102">
          <mxGeometry relative="1" as="geometry" />
        </mxCell>
        <mxCell id="yZECyWibJnEaQU9a-CN--93" value="Is it Higher than12?" style="rhombus;whiteSpace=wrap;html=1;rounded=1;" vertex="1" parent="1">
          <mxGeometry x="425" y="520" width="80" height="80" as="geometry" />
        </mxCell>
        <mxCell id="yZECyWibJnEaQU9a-CN--96" value="" style="edgeStyle=orthogonalEdgeStyle;rounded=0;orthogonalLoop=1;jettySize=auto;html=1;" edge="1" parent="1" source="yZECyWibJnEaQU9a-CN--95" target="yZECyWibJnEaQU9a-CN--1">
          <mxGeometry relative="1" as="geometry" />
        </mxCell>
        <mxCell id="yZECyWibJnEaQU9a-CN--95" value="Choose a Number" style="shape=parallelogram;perimeter=parallelogramPerimeter;whiteSpace=wrap;html=1;fixedSize=1;" vertex="1" parent="1">
          <mxGeometry x="30" y="40" width="120" height="60" as="geometry" />
        </mxCell>
        <mxCell id="yZECyWibJnEaQU9a-CN--97" value="Choose a Number" style="shape=parallelogram;perimeter=parallelogramPerimeter;whiteSpace=wrap;html=1;fixedSize=1;" vertex="1" parent="1">
          <mxGeometry x="30" y="770" width="120" height="60" as="geometry" />
        </mxCell>
        <mxCell id="yZECyWibJnEaQU9a-CN--100" value="" style="whiteSpace=wrap;html=1;rounded=1;" vertex="1" parent="1">
          <mxGeometry x="405" y="640" width="120" height="60" as="geometry" />
        </mxCell>
        <mxCell id="yZECyWibJnEaQU9a-CN--102" value="" style="whiteSpace=wrap;html=1;rounded=1;" vertex="1" parent="1">
          <mxGeometry x="565" y="530" width="120" height="60" as="geometry" />
        </mxCell>
      </root>
    </mxGraphModel>
  </diagram>
</mxfile>
